<svg width="288" height="272" viewBox="0 0 288 272" fill="none" xmlns="http://www.w3.org/2000/svg">
<path d="M219.73 248.271L185.31 222.651L148.24 188.681C88.1003 190.211 -1.37981 178.261 19.4402 96.3209C42.0902 7.19089 166.18 -2.62812 233.35 38.8209C292.57 75.3609 281.11 155.451 220.28 182.901C215.32 185.131 205.9 184.641 204.24 190.641C202.86 195.581 218.98 239.051 219.73 248.271ZM221.76 197.221C276.17 181.141 303.99 113.631 277.9 63.1909C241.59 -7.03913 105.4 -18.6092 47.4602 27.8808C-24.0498 85.2708 -16.4398 180.601 81.8102 200.131C100.4 203.831 129.62 200.471 144.4 206.461C149.61 208.571 180.87 239.571 189.25 246.271C197.41 252.801 238.07 289.901 237.55 261.201C237.36 251.041 219.83 199.891 221.76 197.221Z" fill="black"/>
<path d="M224.16 110.02C234.57 120.33 245.06 101.63 231.58 97.5201C222.9 94.8701 218.83 104.73 224.16 110.02Z" fill="black"/>
<path d="M46.71 98.9615C41.42 115.312 63.2999 112.532 62.3299 101.682C61.6499 94.1016 51.71 96.5915 46.71 98.9615Z" fill="black"/>
<path d="M101.06 99.1418C97.2902 95.2718 87.6702 98.1417 87.6002 105.582C87.4702 120.622 109.75 108.052 101.06 99.1418Z" fill="black"/>
<path d="M131.6 95.2709C126.93 99.8509 129.43 109.361 139.54 106.161C151.63 102.331 140.25 86.7709 131.6 95.2709Z" fill="black"/>
<path d="M185.05 94.9404C176.54 92.2204 173.42 102.31 178.26 105.7C186.81 111.7 192.62 97.3604 185.05 94.9404Z" fill="black"/>
</svg>
