<svg width="40" height="40" viewBox="0 0 40 40" fill="none" xmlns="http://www.w3.org/2000/svg">
<g clip-path="url(#clip0_348_257)">
<mask id="mask0_348_257" style="mask-type:alpha" maskUnits="userSpaceOnUse" x="0" y="0" width="40" height="40">
<rect width="40" height="40" fill="#D9D9D9"/>
</mask>
<g mask="url(#mask0_348_257)">
<path d="M2.07242 35.8653C1.72436 35.8653 1.43075 35.7459 1.19159 35.507C0.952696 35.2678 0.833252 34.9741 0.833252 34.6258V34.0362C0.833252 33.2806 1.12089 32.6181 1.69617 32.0487C2.27117 31.4792 3.06186 31.0563 4.06825 30.7799C4.75853 30.5683 5.3895 30.457 5.96117 30.4462C6.53256 30.4351 7.14659 30.4573 7.80325 30.5128C8.01853 30.5406 8.18047 30.6403 8.28909 30.812C8.3977 30.9837 8.422 31.1688 8.362 31.3674C8.2445 31.7066 8.157 32.0552 8.0995 32.4133C8.04172 32.7716 8.01284 33.137 8.01284 33.5095V34.562C8.01284 34.9387 7.88978 35.2501 7.64367 35.4962C7.39756 35.7423 7.08617 35.8653 6.7095 35.8653H2.07242ZM12.1366 35.8653C11.7599 35.8653 11.4485 35.7423 11.2024 35.4962C10.9563 35.2501 10.8333 34.9387 10.8333 34.562V33.5737C10.8333 31.9817 11.6794 30.7051 13.3716 29.7437C15.0641 28.782 17.2735 28.3012 19.9999 28.3012C22.7541 28.3012 24.9705 28.782 26.6491 29.7437C28.3274 30.7051 29.1666 31.9817 29.1666 33.5737V34.562C29.1666 34.9387 29.0435 35.2501 28.7974 35.4962C28.5513 35.7423 28.2399 35.8653 27.8633 35.8653H12.1366ZM33.2903 35.8653C32.9137 35.8653 32.6023 35.7423 32.3562 35.4962C32.1101 35.2501 31.987 34.9387 31.987 34.562V33.5095C31.987 33.137 31.9581 32.7716 31.9003 32.4133C31.8428 32.0552 31.7588 31.7066 31.6483 31.3674C31.5813 31.1688 31.6021 30.9837 31.7108 30.812C31.8194 30.6403 31.9813 30.5406 32.1966 30.5128C32.8533 30.4573 33.4673 30.4351 34.0387 30.4462C34.6103 30.457 35.2413 30.5683 35.9316 30.7799C36.938 31.0563 37.7287 31.4792 38.3037 32.0487C38.8789 32.6181 39.1666 33.2806 39.1666 34.0362V34.6258C39.1666 34.9741 39.0471 35.2678 38.8083 35.507C38.5691 35.7459 38.2755 35.8653 37.9274 35.8653H33.2903ZM6.89617 29.0224C6.16061 29.0224 5.5352 28.7648 5.01992 28.2495C4.50436 27.7342 4.24659 27.1087 4.24659 26.3728C4.24659 25.642 4.50436 25.0203 5.01992 24.5078C5.5352 23.9956 6.16061 23.7395 6.89617 23.7395C7.627 23.7395 8.25131 23.9956 8.76909 24.5078C9.28686 25.0203 9.54575 25.642 9.54575 26.3728C9.54575 27.1087 9.28686 27.7342 8.76909 28.2495C8.25131 28.7648 7.627 29.0224 6.89617 29.0224ZM33.1195 29.0224C32.3945 29.0224 31.7717 28.7648 31.2512 28.2495C30.7303 27.7342 30.4699 27.1087 30.4699 26.3728C30.4699 25.642 30.7303 25.0203 31.2512 24.5078C31.7717 23.9956 32.3945 23.7395 33.1195 23.7395C33.8609 23.7395 34.4878 23.9956 35.0003 24.5078C35.5128 25.0203 35.7691 25.642 35.7691 26.3728C35.7691 27.1087 35.5128 27.7342 35.0003 28.2495C34.4878 28.7648 33.8609 29.0224 33.1195 29.0224ZM19.9999 27.0512C18.8033 27.0512 17.783 26.6292 16.9391 25.7853C16.0952 24.9412 15.6733 23.9209 15.6733 22.7245C15.6733 21.5001 16.0952 20.4728 16.9391 19.6428C17.783 18.8126 18.8033 18.3974 19.9999 18.3974C21.2244 18.3974 22.2516 18.8126 23.0816 19.6428C23.9116 20.4728 24.3266 21.5001 24.3266 22.7245C24.3266 23.9209 23.9116 24.9412 23.0816 25.7853C22.2516 26.6292 21.2244 27.0512 19.9999 27.0512ZM19.9999 10.4028C21.1658 8.95617 22.5277 7.83297 24.0858 7.03325C25.6438 6.23325 27.2819 5.83325 28.9999 5.83325C31.8205 5.83325 34.2201 6.82256 36.1987 8.80117C38.1773 10.7798 39.1666 13.1794 39.1666 15.9999C39.1666 16.9274 39.0524 17.8303 38.8241 18.7087C38.5958 19.5873 38.286 20.4398 37.8949 21.2662C37.766 21.5681 37.5631 21.786 37.2862 21.9199C37.0092 22.0538 36.7196 22.0638 36.4174 21.9499C36.1546 21.8485 35.9608 21.6751 35.8358 21.4295C35.7108 21.1837 35.7106 20.9387 35.8353 20.6945C36.2137 19.9581 36.5144 19.1963 36.7374 18.4091C36.9608 17.6221 37.0724 16.8191 37.0724 15.9999C37.0724 13.7558 36.2881 11.8492 34.7195 10.2803C33.1506 8.71172 31.2441 7.92742 28.9999 7.92742C27.4102 7.92742 25.9563 8.3652 24.6383 9.24075C23.3202 10.1166 22.1334 11.1574 21.0778 12.3633C20.7845 12.6994 20.4252 12.8674 19.9999 12.8674C19.5746 12.8674 19.2153 12.6994 18.922 12.3633C17.8651 11.1644 16.6778 10.1253 15.3603 9.24617C14.0431 8.367 12.5896 7.92742 10.9999 7.92742C8.75575 7.92742 6.84922 8.71172 5.28034 10.2803C3.71172 11.8492 2.92742 13.7558 2.92742 15.9999C2.92742 16.8191 3.03631 17.6248 3.25409 18.417C3.47214 19.2095 3.7702 19.9739 4.14825 20.7103C4.25659 20.9489 4.25186 21.1869 4.13409 21.4241C4.01631 21.6613 3.83242 21.8341 3.58242 21.9424C3.29159 22.0599 3.00756 22.0519 2.73034 21.9183C2.45284 21.7846 2.24436 21.5669 2.10492 21.2649C1.71381 20.4388 1.40409 19.5838 1.17575 18.6999C0.947419 17.8158 0.833252 16.9158 0.833252 15.9999C0.833252 13.1794 1.82256 10.7798 3.80117 8.80117C5.77978 6.82256 8.17936 5.83325 10.9999 5.83325C12.718 5.83325 14.356 6.23325 15.9141 7.03325C17.4721 7.83297 18.8341 8.95617 19.9999 10.4028Z" fill="#0066CC"/>
</g>
</g>
<defs>
<clipPath id="clip0_348_257">
<rect width="40" height="40" fill="white"/>
</clipPath>
</defs>
</svg>
