<svg width="40" height="40" viewBox="0 0 40 40" fill="none" xmlns="http://www.w3.org/2000/svg">
<g clip-path="url(#clip0_348_269)">
<mask id="mask0_348_269" style="mask-type:alpha" maskUnits="userSpaceOnUse" x="0" y="0" width="40" height="40">
<rect width="40" height="40" fill="#D9D9D9"/>
</mask>
<g mask="url(#mask0_348_269)">
<path d="M5.21383 36.8588C4.91689 36.8588 4.66814 36.7579 4.46758 36.5563C4.26703 36.3549 4.16675 36.1049 4.16675 35.8063C4.16675 35.5079 4.26703 35.2599 4.46758 35.0621C4.66814 34.864 4.91689 34.765 5.21383 34.765H34.7863C35.0833 34.765 35.332 34.8658 35.5326 35.0675C35.7331 35.2689 35.8334 35.5189 35.8334 35.8175C35.8334 36.1158 35.7331 36.3639 35.5326 36.5617C35.332 36.7597 35.0833 36.8588 34.7863 36.8588H5.21383ZM8.80341 32.5C8.43397 32.5 8.12439 32.3751 7.87467 32.1254C7.62494 31.8757 7.50008 31.5661 7.50008 31.1967V24.1988C6.47953 21.9957 5.74258 20.0589 5.28925 18.3883C4.83591 16.7178 4.60925 15.0915 4.60925 13.5096C4.60925 12.0488 4.7948 10.5211 5.16591 8.92667C5.53675 7.33251 6.07272 5.67431 6.77383 3.95209C6.96161 3.50681 7.22536 3.1564 7.56508 2.90084C7.90453 2.64501 8.29092 2.51709 8.72425 2.51709C9.28703 2.51709 9.72869 2.7132 10.0492 3.10543C10.3698 3.49737 10.5169 4.03056 10.4905 4.70501L10.2788 9.13251C10.1877 10.4772 10.389 11.7721 10.8826 13.0171C11.3762 14.2621 12.074 15.3632 12.9759 16.3204C13.8781 17.2776 14.9334 18.0413 16.1417 18.6113C17.3501 19.181 18.6362 19.4658 20.0001 19.4658C21.9879 19.4658 23.7506 19.6099 25.2884 19.8979C26.8262 20.186 28.124 20.6068 29.1817 21.1604C30.2642 21.7351 31.088 22.4701 31.653 23.3654C32.2177 24.2607 32.5001 25.3454 32.5001 26.6196V31.1967C32.5001 31.5661 32.3752 31.8757 32.1255 32.1254C31.8758 32.3751 31.5662 32.5 31.1967 32.5H16.0792V31.3908C16.0792 30.3172 16.4488 29.3986 17.188 28.635C17.9274 27.8711 18.8434 27.4892 19.9359 27.4892H24.8397C25.1366 27.4892 25.3854 27.3883 25.5859 27.1867C25.7865 26.9853 25.8867 26.7353 25.8867 26.4367C25.8867 26.1383 25.7865 25.8903 25.5859 25.6925C25.3854 25.4945 25.1366 25.3954 24.8397 25.3954H19.9359C18.2879 25.3954 16.884 25.9804 15.7242 27.1504C14.5648 28.3207 13.9851 29.7342 13.9851 31.3908V32.5H8.80341ZM20.0001 17.1154C18.3959 17.1154 17.0227 16.5443 15.8805 15.4021C14.738 14.2596 14.1667 12.8863 14.1667 11.2821C14.1667 9.67793 14.738 8.30473 15.8805 7.16251C17.0227 6.02001 18.3959 5.44876 20.0001 5.44876C21.6042 5.44876 22.9774 6.02001 24.1197 7.16251C25.2622 8.30473 25.8334 9.67793 25.8334 11.2821C25.8334 12.8863 25.2622 14.2596 24.1197 15.4021C22.9774 16.5443 21.6042 17.1154 20.0001 17.1154Z" fill="#3380B4"/>
</g>
</g>
<defs>
<clipPath id="clip0_348_269">
<rect width="40" height="40" fill="white"/>
</clipPath>
</defs>
</svg>
