<svg width="40" height="40" viewBox="0 0 40 40" fill="none" xmlns="http://www.w3.org/2000/svg">
<g clip-path="url(#clip0_348_288)">
<mask id="mask0_348_288" style="mask-type:alpha" maskUnits="userSpaceOnUse" x="0" y="0" width="40" height="40">
<rect width="40" height="40" fill="#D9D9D9"/>
</mask>
<g mask="url(#mask0_348_288)">
<path d="M8.19546 19.1189L4.60587 15.5289C4.34587 15.2689 4.21851 14.9644 4.22379 14.6155C4.22935 14.2666 4.36198 13.9622 4.62171 13.7022L8.19546 10.1455C8.45546 9.88552 8.76004 9.75552 9.10921 9.75552C9.4581 9.75552 9.76254 9.88552 10.0225 10.1455L13.5684 13.7022C13.8356 13.9622 13.9692 14.2666 13.9692 14.6155C13.9692 14.9644 13.8356 15.2689 13.5684 15.5289L10.0225 19.1026C9.76254 19.3626 9.4581 19.4952 9.10921 19.5005C8.76004 19.5058 8.45546 19.3786 8.19546 19.1189ZM17.2417 35.8334C16.872 35.8334 16.5623 35.7086 16.3125 35.4589C16.0628 35.2091 15.938 34.8996 15.938 34.5301V27.5601C14.433 27.4437 12.9368 27.29 11.4496 27.0989C9.96268 26.9075 8.48087 26.6512 7.00421 26.3301C6.69171 26.259 6.44254 26.0986 6.25671 25.8489C6.0706 25.5991 6.01601 25.3243 6.09296 25.0243C6.1699 24.7168 6.35115 24.4936 6.63671 24.3547C6.92226 24.2158 7.22712 24.1821 7.55129 24.2534C9.59962 24.7034 11.6627 25.02 13.7405 25.203C15.8182 25.3861 17.9048 25.4776 20 25.4776C22.0953 25.4776 24.1818 25.3861 26.2596 25.203C28.3374 25.02 30.4005 24.7034 32.4488 24.2534C32.773 24.1821 33.0807 24.2154 33.3721 24.3534C33.6638 24.4912 33.8478 24.7121 33.9242 25.0159C34.0012 25.3215 33.9357 25.6023 33.728 25.8584C33.5202 26.1143 33.2555 26.2772 32.9338 26.3472C31.4688 26.6569 29.9973 26.9075 28.5192 27.0989C27.0414 27.29 25.5557 27.4437 24.0621 27.5601V34.5301C24.0621 34.8996 23.9373 35.2091 23.6875 35.4589C23.4378 35.7086 23.1281 35.8334 22.7584 35.8334H17.2417ZM19.9967 11.5814C18.8231 11.5814 17.8268 11.1709 17.008 10.3501C16.1893 9.529 15.78 8.53164 15.78 7.35803C15.78 6.18441 16.1905 5.18816 17.0113 4.36927C17.8321 3.55066 18.8295 3.14136 20.0034 3.14136C21.177 3.14136 22.1732 3.55177 22.9921 4.37261C23.8107 5.19344 24.22 6.1908 24.22 7.36469C24.22 8.5383 23.8096 9.53455 22.9888 10.3534C22.168 11.1721 21.1706 11.5814 19.9967 11.5814ZM20.0021 22.8751C19.1888 22.8751 18.4957 22.5877 17.923 22.013C17.3505 21.4383 17.0642 20.7477 17.0642 19.9414C17.0642 19.128 17.3498 18.435 17.9209 17.8622C18.492 17.2897 19.1843 17.0034 19.998 17.0034C20.8113 17.0034 21.5043 17.289 22.0771 17.8601C22.6496 18.4312 22.9359 19.1236 22.9359 19.9372C22.9359 20.7433 22.6503 21.4346 22.0792 22.0109C21.5081 22.5871 20.8157 22.8751 20.0021 22.8751ZM28.3034 19.0118L26.655 16.0951C26.5381 15.9059 26.4796 15.6929 26.4796 15.4559C26.4796 15.219 26.5381 14.9976 26.655 14.7918L28.3034 11.8751C28.4203 11.6779 28.5818 11.5208 28.788 11.4039C28.9941 11.2872 29.215 11.2289 29.4509 11.2289H32.6871C32.9299 11.2289 33.1543 11.2872 33.3605 11.4039C33.5668 11.5208 33.7248 11.6779 33.8342 11.8751L35.4934 14.7918C35.6031 14.9882 35.658 15.2048 35.658 15.4418C35.658 15.6787 35.6031 15.8965 35.4934 16.0951L33.8342 19.0118C33.7248 19.2162 33.5668 19.3769 33.3605 19.4939C33.1543 19.6105 32.9299 19.6689 32.6871 19.6689H29.4509C29.215 19.6689 28.9941 19.6105 28.788 19.4939C28.5818 19.3769 28.4203 19.2162 28.3034 19.0118Z" fill="#3380B4"/>
</g>
</g>
<defs>
<clipPath id="clip0_348_288">
<rect width="40" height="40" fill="white"/>
</clipPath>
</defs>
</svg>
