<svg width="184" height="32" viewBox="0 0 184 32" fill="none" xmlns="http://www.w3.org/2000/svg">
<g clip-path="url(#clip0_400_875)">
<path d="M2.208 27V4.6H6.528V27H2.208ZM21.2628 27.384C19.0868 27.384 17.1668 26.8933 15.5028 25.912C13.8388 24.9307 12.5374 23.576 11.5988 21.848C10.6601 20.0987 10.1908 18.0827 10.1908 15.8C10.1908 13.5173 10.6601 11.512 11.5988 9.784C12.5374 8.03467 13.8388 6.66933 15.5028 5.688C17.1668 4.70667 19.0868 4.216 21.2628 4.216C23.4601 4.216 25.3908 4.70667 27.0548 5.688C28.7188 6.66933 30.0094 8.03467 30.9268 9.784C31.8654 11.512 32.3348 13.5173 32.3348 15.8C32.3348 18.0827 31.8654 20.0987 30.9268 21.848C30.0094 23.576 28.7188 24.9307 27.0548 25.912C25.3908 26.8933 23.4601 27.384 21.2628 27.384ZM21.2628 23.512C22.6281 23.512 23.8014 23.2027 24.7828 22.584C25.7854 21.944 26.5641 21.048 27.1188 19.896C27.6734 18.744 27.9508 17.3787 27.9508 15.8C27.9508 14.2 27.6734 12.8347 27.1188 11.704C26.5641 10.552 25.7854 9.66667 24.7828 9.048C23.8014 8.42933 22.6281 8.12 21.2628 8.12C19.9188 8.12 18.7454 8.42933 17.7428 9.048C16.7401 9.66667 15.9614 10.552 15.4068 11.704C14.8521 12.8347 14.5748 14.2 14.5748 15.8C14.5748 17.3787 14.8521 18.744 15.4068 19.896C15.9614 21.048 16.7401 21.944 17.7428 22.584C18.7454 23.2027 19.9188 23.512 21.2628 23.512ZM33.1103 27L41.3023 4.6H46.1983L54.3583 27H49.7823L43.7343 9.528L37.6543 27H33.1103ZM36.7263 21.912L37.8783 18.552H49.2703L50.3903 21.912H36.7263ZM57.3018 27V4.6H61.6218V27H57.3018Z" fill="#3174E7"/>
<rect x="70" y="5" width="22" height="22" rx="2" fill="#CE463B"/>
<rect x="70" y="10" width="22" height="12" fill="#EBBB48"/>
<path d="M107.536 27.384C105.893 27.384 104.464 27.0853 103.248 26.488C102.032 25.8907 101.093 25.0587 100.432 23.992C99.7707 22.9253 99.44 21.688 99.44 20.28H102.256C102.256 21.1547 102.459 21.9653 102.864 22.712C103.269 23.4373 103.856 24.024 104.624 24.472C105.413 24.8987 106.384 25.112 107.536 25.112C108.539 25.112 109.392 24.952 110.096 24.632C110.821 24.2907 111.365 23.832 111.728 23.256C112.112 22.68 112.304 22.0293 112.304 21.304C112.304 20.4293 112.112 19.7253 111.728 19.192C111.365 18.6373 110.864 18.1893 110.224 17.848C109.584 17.5067 108.837 17.208 107.984 16.952C107.152 16.6747 106.277 16.3867 105.36 16.088C103.589 15.4907 102.288 14.744 101.456 13.848C100.624 12.952 100.208 11.7893 100.208 10.36C100.208 9.144 100.485 8.07733 101.04 7.16C101.616 6.24267 102.427 5.528 103.472 5.016C104.539 4.48267 105.797 4.216 107.248 4.216C108.677 4.216 109.915 4.48267 110.96 5.016C112.027 5.54933 112.859 6.28533 113.456 7.224C114.053 8.14133 114.352 9.208 114.352 10.424H111.536C111.536 9.80533 111.376 9.19733 111.056 8.6C110.736 8.00267 110.245 7.512 109.584 7.128C108.944 6.72267 108.133 6.52 107.152 6.52C106.341 6.49867 105.616 6.63733 104.976 6.936C104.357 7.21333 103.867 7.61867 103.504 8.152C103.163 8.68533 102.992 9.336 102.992 10.104C102.992 10.8293 103.141 11.416 103.44 11.864C103.76 12.312 104.208 12.696 104.784 13.016C105.381 13.3147 106.075 13.592 106.864 13.848C107.653 14.104 108.528 14.392 109.488 14.712C110.576 15.0747 111.536 15.5227 112.368 16.056C113.221 16.568 113.883 17.2293 114.352 18.04C114.843 18.8507 115.088 19.8853 115.088 21.144C115.088 22.2107 114.8 23.224 114.224 24.184C113.669 25.1227 112.837 25.8907 111.728 26.488C110.619 27.0853 109.221 27.384 107.536 27.384ZM118.963 27V4.6H126.259C128.029 4.6 129.48 4.89867 130.611 5.496C131.763 6.072 132.605 6.85067 133.139 7.832C133.693 8.81333 133.971 9.93333 133.971 11.192C133.971 12.408 133.693 13.5173 133.139 14.52C132.605 15.5013 131.773 16.2907 130.643 16.888C129.512 17.4853 128.051 17.784 126.259 17.784H121.651V27H118.963ZM121.651 15.512H126.227C128.019 15.512 129.299 15.1173 130.067 14.328C130.835 13.5387 131.219 12.4933 131.219 11.192C131.219 9.80533 130.835 8.73867 130.067 7.992C129.299 7.224 128.019 6.84 126.227 6.84H121.651V15.512ZM133.273 27L141.529 4.6H144.377L152.601 27H149.753L142.937 7.96L136.089 27H133.273ZM137.049 21.24L137.817 19.064H147.961L148.729 21.24H137.049ZM155.963 27V4.6H158.651V27H155.963ZM163.463 27V4.6H166.151L178.087 22.552V4.6H180.775V27H178.087L166.151 9.048V27H163.463Z" fill="#3174E7"/>
</g>
<defs>
<clipPath id="clip0_400_875">
<rect width="184" height="32" fill="white"/>
</clipPath>
</defs>
</svg>
