<svg width="323" height="48" viewBox="0 0 323 48" fill="none" xmlns="http://www.w3.org/2000/svg">
<path d="M68.7508 22.1674L57.6242 11.0401L47.3423 0.75885C46.3305 -0.25295 44.6915 -0.25295 43.6797 0.75885L20.4402 23.9984L27.6078 31.1666L34.7749 23.9996L34.7742 23.9984L45.5107 13.2619L50.571 18.3215L56.2478 23.9984L45.5107 34.7354L41.9363 31.1604L34.7692 38.328L43.6797 47.2385C44.6915 48.2497 46.3305 48.2497 47.3423 47.2385L57.3859 37.1943L68.7508 25.8294C69.762 24.8182 69.762 23.1785 68.7508 22.1674Z" fill="#3959FF"/>
<path d="M41.941 16.8353L41.9514 16.8411L41.9573 16.8353L49.1152 23.9973L31.2317 41.882L31.2305 41.8762L25.8686 47.2375C24.8579 48.254 23.2181 48.254 22.2068 47.2375L0.797511 25.8328C0.590144 25.6237 0.427504 25.3913 0.304361 25.1357C-0.218413 24.1599 -0.0679708 22.9111 0.757431 22.0862L5.98633 16.9805L22.2068 0.762905C23.2181 -0.247791 24.8579 -0.247791 25.8686 0.762905L34.772 9.66171L27.6054 16.8295L24.0377 13.263L13.3464 23.9567L24.0627 34.7142L29.1719 29.6026L41.941 16.8353Z" fill="#38C9FF"/>
<path d="M80.5718 34.0485V12.54H85.4763V29.7438H91.5035V34.0485H80.5718Z" fill="#232339"/>
<path d="M92.8218 26.639C92.8218 25.5491 92.9843 24.5341 93.3093 23.5942C93.6442 22.6543 94.1366 21.8343 94.7866 21.1344C95.4464 20.4244 96.2491 19.8645 97.1945 19.4545C98.1498 19.0445 99.243 18.8395 100.474 18.8395C101.646 18.8395 102.7 19.0245 103.635 19.3945C104.571 19.7645 105.364 20.2744 106.014 20.9244C106.674 21.5643 107.181 22.3293 107.535 23.2192C107.89 24.1092 108.067 25.0691 108.067 26.099C108.067 26.389 108.057 26.639 108.038 26.849C108.018 27.059 107.979 27.3689 107.919 27.7789H97.4752C97.4752 28.2289 97.5294 28.6538 97.6377 29.0538C97.7559 29.4538 97.9332 29.8038 98.1695 30.1037C98.4157 30.4037 98.7407 30.6387 99.1445 30.8087C99.5483 30.9787 100.041 31.0637 100.622 31.0637C101.449 31.0637 102.07 30.9037 102.483 30.5837C102.897 30.2537 103.182 29.8538 103.34 29.3838H107.89C107.772 30.0837 107.521 30.7387 107.137 31.3487C106.762 31.9586 106.275 32.4936 105.674 32.9535C105.073 33.4135 104.354 33.7785 103.517 34.0485C102.68 34.3184 101.735 34.4534 100.681 34.4534C99.4104 34.4534 98.2828 34.2535 97.2979 33.8535C96.323 33.4535 95.5006 32.8985 94.8309 32.1886C94.1711 31.4786 93.6688 30.6487 93.3241 29.6988C92.9893 28.7488 92.8218 27.7289 92.8218 26.639ZM97.4752 25.0791H103.532C103.532 24.1792 103.251 23.4692 102.69 22.9492C102.138 22.4193 101.41 22.1543 100.504 22.1543C99.6369 22.1543 98.9131 22.4093 98.332 22.9192C97.7608 23.4192 97.4752 24.1392 97.4752 25.0791Z" fill="#232339"/>
<path d="M110.464 26.639C110.464 25.5291 110.636 24.4991 110.981 23.5492C111.335 22.5993 111.823 21.7843 112.443 21.1044C113.074 20.4144 113.807 19.8695 114.645 19.4695C115.482 19.0695 116.388 18.8695 117.363 18.8695C118.456 18.8695 119.401 19.1045 120.199 19.5745C121.007 20.0444 121.612 20.6394 122.016 21.3593V19.2445H126.64V34.0485H122.016V31.9636C121.652 32.6436 121.066 33.2235 120.258 33.7035C119.451 34.1835 118.485 34.4234 117.363 34.4234C116.398 34.4234 115.492 34.2235 114.645 33.8235C113.807 33.4235 113.074 32.8785 112.443 32.1886C111.823 31.4986 111.335 30.6787 110.981 29.7288C110.636 28.7788 110.464 27.7489 110.464 26.639ZM115.058 26.639C115.058 27.1489 115.142 27.6389 115.309 28.1089C115.487 28.5688 115.723 28.9688 116.018 29.3088C116.324 29.6388 116.688 29.9088 117.112 30.1187C117.535 30.3187 118.008 30.4187 118.53 30.4187C119.052 30.4187 119.524 30.3187 119.948 30.1187C120.381 29.9088 120.746 29.6388 121.041 29.3088C121.346 28.9688 121.583 28.5688 121.75 28.1089C121.927 27.6489 122.016 27.1589 122.016 26.639C122.016 26.129 121.927 25.6491 121.75 25.1991C121.583 24.7491 121.346 24.3491 121.041 23.9992C120.746 23.6492 120.386 23.3742 119.963 23.1742C119.539 22.9742 119.062 22.8742 118.53 22.8742C118.008 22.8742 117.535 22.9742 117.112 23.1742C116.688 23.3742 116.324 23.6492 116.018 23.9992C115.723 24.3491 115.487 24.7491 115.309 25.1991C115.142 25.6491 115.058 26.129 115.058 26.639Z" fill="#232339"/>
<path d="M129.82 26.609C129.82 25.4991 129.987 24.4741 130.322 23.5342C130.667 22.5943 131.144 21.7843 131.755 21.1044C132.375 20.4144 133.109 19.8695 133.956 19.4695C134.803 19.0695 135.734 18.8695 136.748 18.8695C137.772 18.8695 138.693 19.0795 139.51 19.4995C140.328 19.9194 140.958 20.5394 141.401 21.3593V19.2445H146.025V33.9585C146.025 36.4983 145.37 38.3282 144.06 39.4481C142.751 40.578 140.756 41.143 138.078 41.143C136.581 41.143 135.32 40.983 134.296 40.663C133.281 40.353 132.459 39.9281 131.829 39.3881C131.208 38.8581 130.755 38.2282 130.47 37.4982C130.194 36.7783 130.036 36.0083 129.997 35.1884H134.621C134.7 35.8483 134.995 36.4283 135.507 36.9283C136.029 37.4282 136.837 37.6782 137.93 37.6782C138.934 37.6782 139.762 37.4032 140.412 36.8533C141.071 36.3133 141.401 35.4384 141.401 34.2285V31.9036C141.017 32.5336 140.436 33.0735 139.658 33.5235C138.88 33.9735 137.92 34.1985 136.778 34.1985C135.793 34.1985 134.872 34.0185 134.015 33.6585C133.168 33.2885 132.429 32.7636 131.799 32.0836C131.179 31.4036 130.691 30.5987 130.337 29.6688C129.992 28.7388 129.82 27.7189 129.82 26.609ZM134.443 26.639C134.443 27.1489 134.527 27.6389 134.695 28.1089C134.872 28.5688 135.108 28.9688 135.404 29.3088C135.709 29.6388 136.073 29.9088 136.497 30.1187C136.92 30.3187 137.398 30.4187 137.93 30.4187C138.432 30.4187 138.9 30.3237 139.333 30.1337C139.767 29.9338 140.131 29.6638 140.426 29.3238C140.732 28.9738 140.968 28.5738 141.135 28.1239C141.313 27.6739 141.401 27.1789 141.401 26.639C141.401 26.129 141.313 25.6491 141.135 25.1991C140.968 24.7491 140.732 24.3491 140.426 23.9992C140.131 23.6492 139.771 23.3742 139.348 23.1742C138.924 22.9742 138.452 22.8742 137.93 22.8742C137.408 22.8742 136.925 22.9742 136.482 23.1742C136.049 23.3742 135.679 23.6492 135.374 23.9992C135.079 24.3491 134.847 24.7541 134.68 25.2141C134.522 25.674 134.443 26.149 134.443 26.639Z" fill="#232339"/>
<path d="M149.84 28.0339V19.2445H154.434V26.834C154.434 27.8939 154.621 28.7588 154.996 29.4288C155.37 30.0887 156.04 30.4187 157.005 30.4187C157.97 30.4187 158.679 30.0837 159.132 29.4138C159.595 28.7338 159.826 27.8189 159.826 26.669V19.2445H164.45V34.0485H159.826V31.9336C159.423 32.7136 158.807 33.3235 157.98 33.7635C157.153 34.2035 156.163 34.4234 155.011 34.4234C154.006 34.4234 153.179 34.2635 152.529 33.9435C151.889 33.6235 151.367 33.2185 150.963 32.7286C150.5 32.1586 150.195 31.4986 150.047 30.7487C149.909 29.9987 149.84 29.0938 149.84 28.0339Z" fill="#232339"/>
<path d="M167.615 26.639C167.615 25.5491 167.778 24.5341 168.103 23.5942C168.437 22.6543 168.93 21.8343 169.58 21.1344C170.24 20.4244 171.042 19.8645 171.988 19.4545C172.943 19.0445 174.036 18.8395 175.267 18.8395C176.439 18.8395 177.493 19.0245 178.429 19.3945C179.364 19.7645 180.157 20.2744 180.807 20.9244C181.467 21.5643 181.974 22.3293 182.329 23.2192C182.683 24.1092 182.86 25.0691 182.86 26.099C182.86 26.389 182.851 26.639 182.831 26.849C182.811 27.059 182.772 27.3689 182.713 27.7789H172.268C172.268 28.2289 172.323 28.6538 172.431 29.0538C172.549 29.4538 172.726 29.8038 172.963 30.1037C173.209 30.4037 173.534 30.6387 173.938 30.8087C174.342 30.9787 174.834 31.0637 175.415 31.0637C176.242 31.0637 176.863 30.9037 177.276 30.5837C177.69 30.2537 177.976 29.8538 178.133 29.3838H182.683C182.565 30.0837 182.314 30.7387 181.93 31.3487C181.556 31.9586 181.068 32.4936 180.467 32.9535C179.867 33.4135 179.148 33.7785 178.31 34.0485C177.473 34.3184 176.528 34.4534 175.474 34.4534C174.204 34.4534 173.076 34.2535 172.091 33.8535C171.116 33.4535 170.294 32.8985 169.624 32.1886C168.964 31.4786 168.462 30.6487 168.117 29.6988C167.783 28.7488 167.615 27.7289 167.615 26.639ZM172.268 25.0791H178.325C178.325 24.1792 178.045 23.4692 177.483 22.9492C176.932 22.4193 176.203 22.1543 175.297 22.1543C174.43 22.1543 173.706 22.4093 173.125 22.9192C172.554 23.4192 172.268 24.1392 172.268 25.0791Z" fill="#232339"/>
<path d="M185.198 29.0988H189.733C189.733 29.8788 189.95 30.4387 190.383 30.7787C190.817 31.1187 191.373 31.2887 192.053 31.2887C192.614 31.2887 193.072 31.1837 193.426 30.9737C193.791 30.7537 193.973 30.3987 193.973 29.9088C193.973 29.6188 193.894 29.3838 193.737 29.2038C193.589 29.0138 193.358 28.8488 193.042 28.7088C192.727 28.5588 192.323 28.4089 191.831 28.2589C191.339 28.1089 190.748 27.9189 190.058 27.6889C189.438 27.4889 188.852 27.2839 188.3 27.074C187.759 26.854 187.281 26.584 186.867 26.264C186.454 25.944 186.129 25.5541 185.892 25.0941C185.666 24.6341 185.553 24.0642 185.553 23.3842C185.553 22.6043 185.705 21.9293 186.011 21.3593C186.316 20.7894 186.744 20.3194 187.296 19.9494C187.847 19.5795 188.507 19.3045 189.275 19.1245C190.044 18.9345 190.89 18.8395 191.816 18.8395C192.949 18.8395 193.924 18.9695 194.741 19.2295C195.559 19.4895 196.228 19.8445 196.75 20.2944C197.272 20.7444 197.656 21.2744 197.903 21.8843C198.159 22.4943 198.287 23.1492 198.287 23.8492H193.722C193.722 23.2392 193.564 22.7643 193.249 22.4243C192.944 22.0843 192.476 21.9143 191.846 21.9143C191.363 21.9143 190.95 22.0243 190.605 22.2443C190.26 22.4543 190.088 22.7743 190.088 23.2042C190.088 23.4942 190.167 23.7292 190.324 23.9092C190.492 24.0792 190.733 24.2341 191.048 24.3741C191.363 24.5141 191.752 24.6591 192.215 24.8091C192.678 24.9491 193.21 25.1191 193.811 25.3191C194.461 25.4991 195.066 25.699 195.628 25.919C196.189 26.139 196.681 26.409 197.105 26.729C197.538 27.039 197.878 27.4339 198.124 27.9139C198.38 28.3839 198.508 28.9838 198.508 29.7138C198.508 30.5737 198.331 31.3087 197.976 31.9186C197.622 32.5186 197.144 33.0085 196.543 33.3885C195.953 33.7685 195.263 34.0385 194.475 34.1985C193.687 34.3684 192.86 34.4534 191.994 34.4534C189.837 34.4534 188.162 33.9985 186.971 33.0885C185.789 32.1686 185.198 30.8387 185.198 29.0988Z" fill="#232339"/>
<path d="M208.251 26.639C208.251 25.5791 208.433 24.5791 208.797 23.6392C209.171 22.6993 209.708 21.8743 210.407 21.1644C211.107 20.4544 211.954 19.8895 212.948 19.4695C213.943 19.0495 215.075 18.8395 216.346 18.8395C217.616 18.8395 218.749 19.0495 219.744 19.4695C220.748 19.8895 221.595 20.4544 222.284 21.1644C222.984 21.8743 223.516 22.6993 223.88 23.6392C224.244 24.5791 224.427 25.5791 224.427 26.639C224.427 27.6989 224.244 28.7038 223.88 29.6538C223.516 30.5937 222.984 31.4186 222.284 32.1286C221.595 32.8386 220.748 33.4035 219.744 33.8235C218.749 34.2435 217.616 34.4534 216.346 34.4534C215.075 34.4534 213.943 34.2435 212.948 33.8235C211.954 33.4035 211.107 32.8386 210.407 32.1286C209.708 31.4186 209.171 30.5937 208.797 29.6538C208.433 28.7138 208.251 27.7089 208.251 26.639ZM212.874 26.639C212.874 27.1689 212.953 27.6639 213.111 28.1239C213.278 28.5738 213.51 28.9738 213.805 29.3238C214.11 29.6638 214.475 29.9338 214.898 30.1337C215.322 30.3237 215.794 30.4187 216.316 30.4187C216.838 30.4187 217.316 30.3237 217.749 30.1337C218.192 29.9338 218.562 29.6638 218.857 29.3238C219.163 28.9738 219.399 28.5738 219.566 28.1239C219.744 27.6739 219.832 27.1789 219.832 26.639C219.832 26.129 219.744 25.6441 219.566 25.1841C219.399 24.7241 219.163 24.3241 218.857 23.9842C218.562 23.6442 218.197 23.3742 217.764 23.1742C217.331 22.9742 216.848 22.8742 216.316 22.8742C215.794 22.8742 215.322 22.9742 214.898 23.1742C214.475 23.3742 214.11 23.6442 213.805 23.9842C213.51 24.3241 213.278 24.7241 213.111 25.1841C212.953 25.6441 212.874 26.129 212.874 26.639Z" fill="#232339"/>
<path d="M225.73 22.7393V19.2445H228.36V17.9546C228.36 16.6247 228.542 15.5748 228.906 14.8048C229.271 14.0349 229.714 13.4599 230.236 13.0799C230.758 12.7 231.324 12.46 231.935 12.36C232.555 12.26 233.126 12.21 233.648 12.21C234.357 12.21 234.919 12.25 235.332 12.33C235.746 12.41 236.096 12.5 236.381 12.6V15.9897C236.135 15.9297 235.903 15.8847 235.687 15.8547C235.48 15.8147 235.214 15.7947 234.889 15.7947C234.643 15.7947 234.407 15.8147 234.18 15.8547C233.954 15.8847 233.747 15.9647 233.56 16.0947C233.382 16.2247 233.235 16.4147 233.116 16.6647C233.008 16.9047 232.954 17.2396 232.954 17.6696V19.2445H236.381V22.7393H232.983V34.0485H228.36V22.7393H225.73Z" fill="#232339"/>
<path d="M245.37 23.2942C245.37 21.8243 245.616 20.4094 246.109 19.0495C246.601 17.6796 247.325 16.4747 248.28 15.4348C249.235 14.3848 250.412 13.5499 251.811 12.9299C253.219 12.31 254.829 12 256.642 12C258.198 12 259.596 12.23 260.837 12.69C262.078 13.1499 263.151 13.7849 264.057 14.5948C264.963 15.3948 265.687 16.3397 266.229 17.4296C266.78 18.5195 267.125 19.6745 267.263 20.8944H262.152C262.034 20.2644 261.832 19.6845 261.546 19.1545C261.27 18.6145 260.896 18.1496 260.423 17.7596C259.96 17.3596 259.419 17.0496 258.798 16.8297C258.188 16.5997 257.493 16.4847 256.715 16.4847C255.711 16.4847 254.81 16.6747 254.012 17.0546C253.224 17.4246 252.559 17.9246 252.018 18.5545C251.476 19.1745 251.062 19.8995 250.777 20.7294C250.491 21.5593 250.348 22.4143 250.348 23.2942C250.348 24.2341 250.506 25.1191 250.821 25.949C251.136 26.779 251.57 27.5039 252.121 28.1239C252.682 28.7338 253.352 29.2188 254.13 29.5788C254.918 29.9388 255.799 30.1187 256.774 30.1187C258.202 30.1187 259.37 29.7538 260.276 29.0238C261.182 28.2939 261.787 27.3989 262.093 26.339H267.293C267.096 27.4889 266.707 28.5588 266.126 29.5488C265.554 30.5387 264.821 31.4136 263.924 32.1736C263.028 32.9335 261.97 33.5285 260.748 33.9585C259.527 34.3884 258.183 34.6034 256.715 34.6034C254.943 34.6034 253.352 34.2984 251.944 33.6885C250.545 33.0685 249.354 32.2436 248.369 31.2137C247.394 30.1737 246.65 28.9738 246.138 27.6139C245.626 26.254 245.37 24.8141 245.37 23.2942Z" fill="#232339"/>
<path d="M269.364 26.639C269.364 25.5791 269.546 24.5791 269.911 23.6392C270.285 22.6993 270.822 21.8743 271.521 21.1644C272.22 20.4544 273.067 19.8895 274.062 19.4695C275.057 19.0495 276.189 18.8395 277.46 18.8395C278.73 18.8395 279.863 19.0495 280.857 19.4695C281.862 19.8895 282.709 20.4544 283.398 21.1644C284.098 21.8743 284.629 22.6993 284.994 23.6392C285.358 24.5791 285.54 25.5791 285.54 26.639C285.54 27.6989 285.358 28.7038 284.994 29.6538C284.629 30.5937 284.098 31.4186 283.398 32.1286C282.709 32.8386 281.862 33.4035 280.857 33.8235C279.863 34.2435 278.73 34.4534 277.46 34.4534C276.189 34.4534 275.057 34.2435 274.062 33.8235C273.067 33.4035 272.22 32.8386 271.521 32.1286C270.822 31.4186 270.285 30.5937 269.911 29.6538C269.546 28.7138 269.364 27.7089 269.364 26.639ZM273.988 26.639C273.988 27.1689 274.067 27.6639 274.224 28.1239C274.392 28.5738 274.623 28.9738 274.919 29.3238C275.224 29.6638 275.589 29.9338 276.012 30.1337C276.435 30.3237 276.908 30.4187 277.43 30.4187C277.952 30.4187 278.43 30.3237 278.863 30.1337C279.306 29.9338 279.676 29.6638 279.971 29.3238C280.276 28.9738 280.513 28.5738 280.68 28.1239C280.857 27.6739 280.946 27.1789 280.946 26.639C280.946 26.129 280.857 25.6441 280.68 25.1841C280.513 24.7241 280.276 24.3241 279.971 23.9842C279.676 23.6442 279.311 23.3742 278.878 23.1742C278.445 22.9742 277.962 22.8742 277.43 22.8742C276.908 22.8742 276.435 22.9742 276.012 23.1742C275.589 23.3742 275.224 23.6442 274.919 23.9842C274.623 24.3241 274.392 24.7241 274.224 25.1841C274.067 25.6441 273.988 26.129 273.988 26.639Z" fill="#232339"/>
<path d="M287.715 26.639C287.715 25.5291 287.888 24.4991 288.233 23.5492C288.587 22.5993 289.075 21.7843 289.695 21.1044C290.325 20.4144 291.059 19.8695 291.896 19.4695C292.733 19.0695 293.639 18.8695 294.614 18.8695C295.707 18.8695 296.653 19.1045 297.451 19.5745C298.258 20.0444 298.864 20.6394 299.268 21.3593V12.54H303.892V34.0485H299.268V31.9636C298.903 32.6436 298.317 33.2235 297.51 33.7035C296.702 34.1835 295.737 34.4234 294.614 34.4234C293.649 34.4234 292.743 34.2235 291.896 33.8235C291.059 33.4235 290.325 32.8785 289.695 32.1886C289.075 31.4986 288.587 30.6787 288.233 29.7288C287.888 28.7788 287.715 27.7489 287.715 26.639ZM292.31 26.639C292.31 27.1489 292.393 27.6389 292.561 28.1089C292.738 28.5688 292.975 28.9688 293.27 29.3088C293.575 29.6388 293.94 29.9088 294.363 30.1187C294.787 30.3187 295.259 30.4187 295.781 30.4187C296.303 30.4187 296.776 30.3187 297.2 30.1187C297.633 29.9088 297.997 29.6388 298.293 29.3088C298.598 28.9688 298.834 28.5688 299.002 28.1089C299.179 27.6489 299.268 27.1589 299.268 26.639C299.268 26.129 299.179 25.6491 299.002 25.1991C298.834 24.7491 298.598 24.3491 298.293 23.9992C297.997 23.6492 297.638 23.3742 297.214 23.1742C296.791 22.9742 296.313 22.8742 295.781 22.8742C295.259 22.8742 294.787 22.9742 294.363 23.1742C293.94 23.3742 293.575 23.6492 293.27 23.9992C292.975 24.3491 292.738 24.7491 292.561 25.1991C292.393 25.6491 292.31 26.129 292.31 26.639Z" fill="#232339"/>
<path d="M307.042 26.639C307.042 25.5491 307.204 24.5341 307.529 23.5942C307.864 22.6543 308.356 21.8343 309.006 21.1344C309.666 20.4244 310.469 19.8645 311.414 19.4545C312.37 19.0445 313.463 18.8395 314.694 18.8395C315.866 18.8395 316.92 19.0245 317.855 19.3945C318.791 19.7645 319.584 20.2744 320.234 20.9244C320.893 21.5643 321.401 22.3293 321.755 23.2192C322.11 24.1092 322.287 25.0691 322.287 26.099C322.287 26.389 322.277 26.639 322.257 26.849C322.238 27.059 322.198 27.3689 322.139 27.7789H311.695C311.695 28.2289 311.749 28.6538 311.858 29.0538C311.976 29.4538 312.153 29.8038 312.389 30.1037C312.636 30.4037 312.961 30.6387 313.364 30.8087C313.768 30.9787 314.261 31.0637 314.842 31.0637C315.669 31.0637 316.289 30.9037 316.703 30.5837C317.117 30.2537 317.402 29.8538 317.56 29.3838H322.11C321.992 30.0837 321.74 30.7387 321.356 31.3487C320.982 31.9586 320.495 32.4936 319.894 32.9535C319.293 33.4135 318.574 33.7785 317.737 34.0485C316.9 34.3184 315.954 34.4534 314.901 34.4534C313.63 34.4534 312.503 34.2535 311.518 33.8535C310.543 33.4535 309.72 32.8985 309.051 32.1886C308.391 31.4786 307.889 30.6487 307.544 29.6988C307.209 28.7488 307.042 27.7289 307.042 26.639ZM311.695 25.0791H317.752C317.752 24.1792 317.471 23.4692 316.91 22.9492C316.358 22.4193 315.629 22.1543 314.723 22.1543C313.857 22.1543 313.133 22.4093 312.552 22.9192C311.981 23.4192 311.695 24.1392 311.695 25.0791Z" fill="#232339"/>
</svg>
