<svg width="286" height="253" viewBox="0 0 286 253" fill="none" xmlns="http://www.w3.org/2000/svg">
<g clip-path="url(#clip0_650_174)">
<path d="M60.1598 233.531C54.3571 250.331 85.0376 239.711 91.8864 239.003C104.422 237.693 114.824 238.858 126.491 243.535C131.712 245.628 137.385 253.423 143.837 249.488L146.812 245.152C148.394 238.39 129.853 228.93 124.234 227.201C114.764 224.298 98.7306 224.001 89.0022 226.436L88.3685 222.777C102.986 206.852 107.174 184.38 93.0632 166.387C87.4872 159.28 77.9456 156.588 72.1762 149.842C119.805 145.03 120.677 101.963 110.251 65.2213C136.588 96.6095 180.404 122.895 199.976 68.8973C204.296 96.342 232.981 145.627 266.487 126.724C283.507 117.11 273.045 97.7937 264.419 106.569C261.226 109.815 267.172 118.377 251.387 117.515C223.982 116.016 214.951 71.7613 211.986 50.3345C211.104 43.9835 213.079 16.3908 200.926 22.1214C189.36 27.5703 193.799 82.5767 166.253 86.7312C152.033 88.8781 129.768 66.2286 120.944 56.4782C115.578 50.5422 100.125 26.3785 93.1127 27.6683C88.6242 28.4879 85.9418 33.6488 86.5183 37.9247C88.2483 50.5166 96.9803 68.4272 99.8743 82.3927C107.549 119.404 96.1568 137.394 56.586 136.687C49.0703 136.549 30.8163 130.979 27.2518 139.356C27.0365 140.896 26.8797 142.573 27.5438 144.028C32.6761 155.173 78.5088 159.654 86.9607 183.827C91.2413 196.062 81.3773 210.398 73.8974 219.447C70.9905 222.973 61.1204 230.747 60.1598 233.531Z" fill="black"/>
</g>
<defs>
<clipPath id="clip0_650_174">
<rect width="286" height="253" fill="white" transform="matrix(-1 0 0 1 286 0)"/>
</clipPath>
</defs>
</svg>
