<svg width="160" height="258" viewBox="0 0 160 258" fill="none" xmlns="http://www.w3.org/2000/svg">
<path d="M40.2822 135.456C55.0742 142.355 67.1532 145.1 83.1272 140.077C117.098 129.395 109.276 99.42 73.5631 106.899C65.6071 108.566 35.2852 128.218 40.2822 135.456ZM91.1262 0C92.8702 3.178 93.7121 8.38799 90.9271 11.076C88.7531 13.173 65.7632 20.168 59.2822 23.731C25.8212 42.132 2.29215 82.888 24.0201 119.259C24.7141 120.419 24.0572 123.131 27.3742 121.756C33.5692 119.189 46.1412 101.106 59.8922 95.2C102.667 76.826 144.788 113.666 106.116 145.339C85.3892 162.315 53.2322 162.73 31.3242 147.407C-3.95085 211.909 81.5412 264.668 133.759 224.137L119.12 214.97C116.328 211.911 118.568 205.846 122.271 204.638C125.643 203.539 157.495 213.92 159.402 218.302C160.516 220.86 152.734 251.321 150.608 254.258C147.121 259.078 138.584 258.251 136.965 252.224L138.641 239.872C68.7132 284.819 -24.5888 215.912 17.9882 136.503C-29.9558 80.373 26.0211 2.721 91.1262 0Z" fill="black"/>
</svg>
