<svg width="329" height="315" viewBox="0 0 329 315" fill="none" xmlns="http://www.w3.org/2000/svg">
<path d="M176.889 123.397C166.559 131.797 163.159 119.842 156.829 114.11C139.899 98.787 112.559 96.749 98.6687 117.093C87.5487 133.386 93.6186 149.596 106.519 162.428C126.329 182.141 159.009 197.235 180.369 216.52C193.669 190.017 233.229 151.721 232.389 121.236C231.839 101.009 208.859 95.095 193.339 105.435C186.599 109.931 181.579 119.582 176.889 123.397ZM200.559 85.107C236.049 79.067 253.229 107.158 244.999 139.354C240.109 158.513 205.339 211.276 192.079 228.181C177.939 246.218 167.909 226.446 154.759 216.564C134.839 201.602 92.8486 178.494 82.5786 156.828C69.8786 130.039 82.5387 99.171 110.559 89.611C134.019 81.605 152.459 91.94 170.369 106.215C177.879 97.026 188.419 87.174 200.559 85.107Z" fill="black"/>
<path d="M328.828 133.595C309.898 139.929 289.378 136.935 270.278 133.584C269.508 132.349 269.618 128.608 269.988 127.023C270.238 125.948 270.218 124.826 270.878 123.871C274.108 119.125 313.508 124.455 321.938 120.641L328.108 123.983L328.828 133.595Z" fill="black"/>
<path d="M304.909 209.153C310.339 214.713 303.859 222.027 297.379 221.482C294.299 221.223 253.489 206.461 251.539 204.908L250.249 196.191C250.989 193.287 258.069 192.916 260.619 193.238C264.679 193.754 303.119 207.327 304.909 209.153Z" fill="black"/>
<path d="M62.699 175.43C63.749 175.27 64.7491 175.055 65.7891 175.433L70.1691 179.123L70.869 185.61L31.149 215.072C26.419 218.121 22.7391 214.04 21.7891 209.51C21.8191 201.277 57.819 176.176 62.699 175.43Z" fill="black"/>
<path d="M87.3689 286.873C85.5789 285.085 85.0489 281.92 85.7289 279.454C88.3189 270.078 106.239 250.271 108.819 238.481C134.409 232.482 107.509 275.049 101.159 282.942C97.7789 287.135 92.4689 291.975 87.3689 286.873Z" fill="black"/>
<path d="M94.4792 58.7719C93.0192 59.6849 87.9792 59.3979 86.2192 58.7239C82.7692 57.4039 61.4492 17.2679 62.2392 13.5689C62.6192 11.7979 63.8592 10.0749 65.1592 8.79893C67.7192 7.24993 70.5392 7.26294 73.0892 8.83494C75.0692 10.0499 94.9792 45.4939 95.8992 49.2139C96.8292 52.9339 96.1292 55.4819 94.4792 58.7719Z" fill="black"/>
<path d="M192.479 260.044C205.859 255.588 202.289 268.477 203.299 276.301C204.269 283.834 210.639 307.833 207.189 312.13C191.689 325.09 189.739 288.827 189.199 278.6C188.949 274.005 187.709 261.634 192.479 260.044Z" fill="black"/>
<path d="M155.189 0.204747C159.769 -0.936254 162.759 2.88076 163.589 6.96076C164.669 12.2228 169.349 44.7868 168.989 47.9828C168.059 56.1128 158.159 57.9538 154.819 51.1538C151.599 44.5768 146.049 2.47675 155.189 0.204747Z" fill="black"/>
<path d="M261.898 14.0155C263.248 16.1525 261.828 21.0385 261.148 23.6315C260.058 27.8655 248.348 57.2225 246.498 59.6165C243.498 63.4765 238.658 62.7245 234.828 60.7375C230.838 54.3845 246.848 14.6165 254.188 12.6105C256.058 12.1015 261.238 12.9715 261.898 14.0155Z" fill="black"/>
<path d="M45.2087 102.049C40.9387 104.759 10.1688 98.0122 4.68881 95.0782C-1.27119 91.8862 -2.58122 80.1962 6.90878 80.7202C9.56878 80.8672 39.6388 88.0002 42.0488 89.0742C44.4088 90.1242 46.3987 91.2202 47.2187 93.8822L45.2087 102.049Z" fill="black"/>
</svg>
