<svg width="469" height="88" viewBox="0 0 469 88" fill="none" xmlns="http://www.w3.org/2000/svg">
<path fill-rule="evenodd" clip-rule="evenodd" d="M0 41.8661V0.94716H7.00102V18.3488H24.0294V0.94716H31.1168V41.8661H24.0294V24.4654H7.00102V41.8661H0ZM37.5137 41.8661V39.5402L52.2081 0.94716H59.1228L73.8162 39.5402V41.8661H66.9015L63.2711 31.787H47.7127L44.0833 41.8661H37.5137ZM49.8741 25.9292H61.1107L55.5787 10.3369L49.8741 25.9292ZM80.2122 41.8661V0.94716H97.8447C105.797 0.94716 110.205 5.59906 110.205 13.5251C110.205 18.9513 107.698 23.2585 102.945 25.3267L110.638 39.5402V41.8661H103.723L95.2518 26.102H87.2995V41.8661H80.2122ZM87.2995 20.1582H96.6345C100.956 20.1582 103.118 18.0041 103.118 13.611C103.118 9.21788 100.956 7.06378 96.6345 7.06378H87.2995V20.1582ZM118.936 41.952V0.94716H136.223C143.571 0.94716 147.979 4.6519 147.979 11.9745C147.979 16.1088 146.336 18.9513 143.052 20.6748C147.374 22.2254 149.534 25.4985 149.534 30.5811C149.534 37.9895 145.212 41.952 137.779 41.952H118.936ZM126.023 35.7495H136.742C140.631 35.7495 142.619 33.8552 142.619 30.1504C142.619 26.2738 140.718 24.3785 136.742 24.3785H126.023V35.7495ZM126.023 18.5207H135.099C138.989 18.5207 140.89 16.6253 140.89 12.7498C140.89 8.95911 138.989 7.06378 135.099 7.06378H126.023V18.5207ZM156.621 14.8169C156.621 5.686 162.845 0.0859217 172.785 0.0859217C182.725 0.0859217 188.948 5.59906 188.948 14.8169V27.9973C188.948 37.2142 182.725 42.7273 172.785 42.7273C162.845 42.7273 156.621 37.2142 156.621 27.9973V14.8169ZM181.861 14.4722C181.861 9.82035 178.663 6.54723 172.785 6.54723C166.908 6.54723 163.71 9.90627 163.71 14.4722V28.428C163.71 33.0799 166.908 36.353 172.785 36.353C178.663 36.353 181.861 32.9929 181.861 28.428V14.4722ZM221.534 0.94716H228.709V28.5129C228.709 32.9929 227.326 36.4389 224.473 38.9367C221.708 41.4345 217.905 42.6404 213.15 42.6404C208.396 42.6404 204.593 41.4345 201.741 38.9367C198.975 36.4389 197.592 32.907 197.592 28.5129V0.94716H204.593V28.8576C204.593 33.1648 207.618 36.266 213.064 36.266C218.51 36.266 221.534 33.0788 221.534 28.8576V0.94716ZM238.735 41.8661V0.94716H256.368C264.321 0.94716 268.729 5.59906 268.729 13.5251C268.729 18.9513 266.222 23.2585 261.555 25.3267L269.247 39.5402V41.8661H262.332L253.861 26.102H245.736V41.8661H238.735ZM245.736 20.1582H255.073C259.393 20.1582 261.555 18.0041 261.555 13.611C261.555 9.21788 259.393 7.06378 255.073 7.06378H245.736V20.1582ZM295.178 39.1095C292.153 36.6117 290.684 33.1658 290.684 28.5998H297.684C297.684 30.4951 298.205 32.0458 299.24 33.2517C301.315 35.6636 303.995 36.267 307.019 36.267C311.948 36.267 314.714 34.027 314.714 30.9257C314.714 29.461 314.109 28.341 312.812 27.5657C311.516 26.7904 309.18 25.6714 305.811 24.3785L305.291 24.2067L304.342 23.862C299.845 22.1395 296.647 20.5019 294.745 18.9513C292.844 17.3147 291.894 14.9888 291.894 11.8875C291.894 8.35563 293.191 5.42722 295.783 3.27311C298.464 1.12001 302.093 0 306.675 0C315.922 0 321.888 4.39313 321.888 13.7829H314.884C314.884 8.61441 311.342 6.37438 306.587 6.37438C301.92 6.37438 298.981 8.44257 298.981 11.371C298.981 12.9216 299.586 14.2135 300.797 14.9029C302.008 15.6782 304.342 16.6253 307.798 17.9182L308.662 18.176C310.911 18.9513 312.639 19.6407 313.935 20.2442C315.319 20.8466 316.615 21.6219 318.085 22.5701C320.936 24.4644 322.231 27.0492 322.231 30.4951C322.231 37.6448 316.701 42.5555 306.675 42.5555C302.093 42.7273 298.29 41.5214 295.178 39.1095ZM330.963 41.8661V0.94716H348.769C356.028 0.94716 360.351 5.77192 360.351 13.5251C360.351 21.2772 356.028 26.102 348.769 26.102H338.05V41.8661H330.963ZM338.05 19.9854H347.557C350.755 19.9854 353.177 17.7454 353.177 13.5251C353.177 9.38973 350.755 7.06378 347.557 7.06378H338.05V19.9854ZM361.216 41.8661V39.5402L375.909 0.94716H382.824L397.52 39.5402V41.8661H390.604L386.975 31.787H371.501L367.785 41.8661H361.216ZM373.489 25.9292H384.726L379.194 10.3369L373.489 25.9292ZM402.704 27.9963V14.8159C402.704 5.42621 408.496 0.0859217 418.695 0.0859217C423.015 0.0859217 426.648 1.29186 429.5 3.61781C432.353 6.02968 433.819 9.56157 433.819 14.2135V14.8159H426.818V14.2135C426.818 11.7147 425.954 9.73341 424.312 8.52748C422.584 7.1497 420.77 6.54622 418.695 6.54622C412.732 6.54622 409.878 9.38872 409.878 14.3853V28.5129C409.878 33.5095 412.817 36.352 418.695 36.352C420.77 36.352 422.584 35.7495 424.312 34.4576C426.043 33.0788 426.818 31.1835 426.818 28.6857V28.0822H433.819V28.6857C433.819 33.3376 432.353 36.8695 429.5 39.2814C426.648 41.6933 423.015 42.8133 418.695 42.8133C408.582 42.7273 402.704 37.3861 402.704 27.9963ZM442.638 41.8661V0.94716H468.916V7.06378H449.639V18.4348H466.235V24.2926H449.639V35.7495H469V41.8661H442.638ZM283.077 41.8661C283.077 42.8133 282.299 43.6755 281.262 43.6755C280.312 43.6755 279.447 42.9002 279.447 41.8661C279.447 40.9189 280.224 40.0567 281.262 40.0567C282.299 40.1436 283.077 40.9189 283.077 41.8661ZM2.22233 61.7241V87.4501H0.0852792V61.7241H2.22233ZM9.31168 61.7241H11.3046L25.6609 83.4805V61.7241H27.8376V87.4501H25.8447L11.4487 65.7321V87.4501H9.31168V61.7241ZM33.2609 79.1086H35.4041C35.4041 84.2164 39.6091 86.0157 43.2264 86.0157C47.5838 86.0157 49.7604 83.8849 49.7604 81.1647C49.7604 78.5557 47.803 77.2709 43.8924 75.8001L41.0112 74.7337C36.398 73.0062 34.1492 71.6102 34.1492 67.9347C34.1492 63.9652 37.3218 61.1742 42.7096 61.1742C47.8396 61.1742 51.9005 63.673 51.9005 69.8473H49.7218C49.7218 64.9214 46.3269 63.1585 42.6741 63.1585C38.6873 63.1585 36.2863 65.1044 36.2863 67.7882C36.2863 70.3972 37.8741 71.4636 41.5665 72.7878L44.334 73.8158C48.7279 75.4332 52.0112 77.0141 52.0112 81.0545C52.0112 84.9513 49.0944 88 43.1147 88C38.0964 88 33.2609 85.3546 33.2609 79.1086ZM63.5624 63.6366H55.4071V61.7241H73.8609V63.6366H65.7056V87.4501H63.5624V63.6366ZM80.467 61.7241V87.4501H78.3239V61.7241H80.467ZM93.1239 63.6366H84.9685V61.7241H103.422V63.6366H95.267V87.4501H93.1239V63.6366ZM107.52 79.0702V61.7241H109.657V79.0702C109.657 83.4815 112.466 86.0157 116.783 86.0157C121.066 86.0157 123.869 83.5563 123.869 79.0702V61.7241H126.046V79.0702C126.046 84.9159 121.948 88 116.783 88C111.578 88 107.52 84.9877 107.52 79.0702ZM138.297 63.6366H130.142V61.7241H148.596V63.6366H140.441V87.4501H138.297V63.6366ZM153.06 61.7241H168.746V63.6366H155.2V73.5197H167.011V75.4322H155.2V85.5396H168.782V87.4501H153.06V61.7241ZM183.138 78.8135V70.3618C183.138 64.5545 186.903 61.1742 192.846 61.1742C198.749 61.1742 202.552 64.5545 202.552 70.3618V78.8135C202.552 84.6197 198.749 88 192.846 88C186.903 88 183.138 84.6197 183.138 78.8135ZM200.412 78.9236V70.2506C200.412 65.9505 197.606 63.1585 192.846 63.1585C188.085 63.1585 185.281 65.9505 185.281 70.2506V78.9236C185.281 83.2238 188.085 86.0157 192.846 86.0157C197.606 86.0157 200.412 83.2238 200.412 78.9236ZM208.897 61.7241H224.733V63.6366H211.076V73.6693H222.959V75.5788H211.076V87.4501H208.897V61.7241ZM243.887 63.6366H235.729V61.7241H254.183V63.6366H246.027V87.4501H243.887V63.6366ZM258.649 61.7241H274.335V63.6366H260.789V73.5197H272.6V75.4322H260.789V85.5396H274.374V87.4501H258.649V61.7241ZM279.243 78.7407V70.4356C279.243 64.5899 282.895 61.1742 288.986 61.1742C293.932 61.1742 298.284 64.0036 298.284 69.7725V70.1394H296.147V69.7725C296.147 65.3248 292.567 63.1585 288.986 63.1585C284.15 63.1585 281.383 65.8029 281.383 70.286V78.8872C281.383 83.3703 284.15 86.0147 288.986 86.0147C292.567 86.0147 296.147 83.8485 296.147 79.4007V79.0338H298.284V79.4007C298.284 85.1717 293.932 87.999 288.986 87.999C282.895 87.999 279.243 84.5833 279.243 78.7407ZM304.263 61.7241H306.403V73.5591H320.612V61.7241H322.755V87.4501H320.612V75.4686H306.403V87.4501H304.263V61.7241ZM329.84 61.7241H331.832L346.189 83.4805V61.7241H348.369V87.4501H346.375L331.98 65.7321V87.4501H329.84V61.7241ZM354.717 78.8135V70.3618C354.717 64.5545 358.481 61.1742 364.421 61.1742C370.328 61.1742 374.131 64.5545 374.131 70.3618V78.8135C374.131 84.6197 370.328 88 364.421 88C358.481 88 354.717 84.6197 354.717 78.8135ZM371.988 78.9236V70.2506C371.988 65.9505 369.184 63.1585 364.421 63.1585C359.663 63.1585 356.857 65.9505 356.857 70.2506V78.9236C356.857 83.2238 359.663 86.0157 364.421 86.0157C369.184 86.0157 371.988 83.2238 371.988 78.9236ZM380.476 61.7241H382.616V85.5396H396.531V87.4501H380.476V61.7241ZM399.557 78.8135V70.3618C399.557 64.5545 403.322 61.1742 409.262 61.1742C415.169 61.1742 418.972 64.5545 418.972 70.3618V78.8135C418.972 84.6197 415.169 88 409.262 88C403.322 88 399.557 84.6197 399.557 78.8135ZM416.828 78.9236V70.2506C416.828 65.9505 414.024 63.1585 409.262 63.1585C404.504 63.1585 401.697 65.9505 401.697 70.2506V78.9236C401.697 83.2238 404.504 86.0157 409.262 86.0157C414.024 86.0157 416.828 83.2238 416.828 78.9236ZM424.578 78.7407V70.4356C424.578 64.5899 428.381 61.1742 434.543 61.1742C439.489 61.1742 443.955 63.9652 444.03 69.6613V69.9574H441.852V69.6613C441.815 65.3248 438.162 63.1585 434.507 63.1585C429.636 63.1585 426.721 65.8029 426.721 70.286V78.7407C426.721 83.2238 429.636 86.0147 434.396 86.0147C437.902 86.0147 440.339 84.362 441.852 81.0545V76.535H435.245V74.7327H444.03V87.4491H442.737L442.182 83.5553C440.56 86.3827 438.052 87.999 434.284 87.999C428.306 87.999 424.578 84.5085 424.578 78.7407ZM457.241 77.2315L447.755 62.459V61.7241H449.86L458.31 75.2108L466.912 61.7241H468.868V62.459L459.381 77.1597V87.4491H457.241V77.2315Z" fill="#4B2696"/>
</svg>
